<svg width="18" height="20" viewBox="0 0 18 20" fill="none" xmlns="http://www.w3.org/2000/svg">
<path d="M17.947 6.30496C17.9369 5.54758 17.7951 4.79773 17.528 4.08896C17.2964 3.49111 16.9425 2.94816 16.4892 2.49479C16.0358 2.04142 15.4929 1.68761 14.895 1.45596C14.1953 1.19331 13.4562 1.0513 12.709 1.03596C11.747 0.992957 11.442 0.980957 9.00001 0.980957C6.55801 0.980957 6.24501 0.980957 5.29001 1.03596C4.54317 1.05141 3.80436 1.19343 3.10501 1.45596C2.50707 1.68745 1.96403 2.0412 1.51064 2.49459C1.05725 2.94798 0.703498 3.49102 0.472009 4.08896C0.20884 4.78809 0.0671324 5.52707 0.0530093 6.27396C0.0100093 7.23696 -0.00299072 7.54196 -0.00299072 9.98396C-0.00299072 12.426 -0.00299073 12.738 0.0530093 13.694C0.0680093 14.442 0.209009 15.18 0.472009 15.881C0.703887 16.4787 1.05791 17.0215 1.51145 17.4747C1.96499 17.9279 2.50807 18.2815 3.10601 18.513C3.80344 18.7862 4.54238 18.9383 5.29101 18.963C6.25401 19.006 6.55901 19.019 9.00101 19.019C11.443 19.019 11.756 19.019 12.711 18.963C13.4582 18.9482 14.1974 18.8066 14.897 18.544C15.4947 18.312 16.0375 17.9581 16.4909 17.5048C16.9442 17.0515 17.2981 16.5086 17.53 15.911C17.793 15.211 17.934 14.473 17.949 13.724C17.992 12.762 18.005 12.457 18.005 10.014C18.003 7.57196 18.003 7.26196 17.947 6.30496ZM8.99401 14.602C6.44001 14.602 4.37101 12.533 4.37101 9.97896C4.37101 7.42496 6.44001 5.35596 8.99401 5.35596C10.2201 5.35596 11.396 5.84302 12.263 6.71C13.1299 7.57698 13.617 8.75286 13.617 9.97896C13.617 11.2051 13.1299 12.3809 12.263 13.2479C11.396 14.1149 10.2201 14.602 8.99401 14.602ZM13.801 6.26296C13.204 6.26296 12.723 5.78096 12.723 5.18496C12.723 5.04346 12.7509 4.90334 12.805 4.77262C12.8592 4.64189 12.9385 4.5231 13.0386 4.42305C13.1387 4.32299 13.2574 4.24363 13.3882 4.18948C13.5189 4.13533 13.659 4.10746 13.8005 4.10746C13.942 4.10746 14.0821 4.13533 14.2129 4.18948C14.3436 4.24363 14.4624 4.32299 14.5624 4.42305C14.6625 4.5231 14.7418 4.64189 14.796 4.77262C14.8501 4.90334 14.878 5.04346 14.878 5.18496C14.878 5.78096 14.396 6.26296 13.801 6.26296Z" fill="#C98A40"/>
</svg>
